<svg width="101" height="37" viewBox="0 0 101 37" fill="none" xmlns="http://www.w3.org/2000/svg">
<rect x="28" y="6" width="73" height="25" rx="5" fill="#0084CC"/>
<path d="M42.726 10.542H44.882C45.4687 10.542 45.916 10.6887 46.224 10.982C46.532 11.2753 46.686 11.686 46.686 12.214V16.284C46.686 16.8193 46.5393 17.241 46.246 17.549C45.96 17.8497 45.52 18 44.926 18H42.726V14.733H42.044V13.853H42.726V10.542ZM45.652 16.229V12.247C45.652 11.6897 45.3623 11.411 44.783 11.411H43.76V13.853H44.728V14.733H43.76V17.098H44.783C45.3623 17.098 45.652 16.8083 45.652 16.229ZM51.0484 18L50.6414 16.02H48.7934L48.3864 18H47.3744L49.0024 10.542H50.4544L52.0604 18H51.0484ZM48.9694 15.129H50.4544L49.7064 11.51L48.9694 15.129ZM48.9474 9.926V10.025H48.2984V9.915C48.3131 9.299 48.5844 8.991 49.1124 8.991C49.3178 8.991 49.5451 9.06433 49.7944 9.211C50.0438 9.35767 50.2051 9.431 50.2784 9.431C50.4398 9.431 50.5204 9.31 50.5204 9.068V8.969H51.1694V9.09C51.1548 9.69867 50.8871 10.003 50.3664 10.003C50.1758 10.003 49.9558 9.92967 49.7064 9.783C49.4571 9.63633 49.2848 9.563 49.1894 9.563C49.0281 9.563 48.9474 9.684 48.9474 9.926ZM58.2601 10.542V11.455H56.8411V18H55.7961V11.455H54.3771V10.542H58.2601ZM62.1669 10.542H63.2229V18H62.1669V14.799H60.0659V18H59.0209V10.542H60.0659V13.875H62.1669V10.542ZM64.4753 16.306V12.247C64.4753 11.697 64.6403 11.257 64.9703 10.927C65.3077 10.597 65.8027 10.432 66.4553 10.432C67.1153 10.432 67.614 10.6007 67.9513 10.938C68.2887 11.268 68.4573 11.7043 68.4573 12.247V16.306C68.4573 16.8487 68.2887 17.285 67.9513 17.615C67.614 17.945 67.119 18.11 66.4663 18.11C65.8137 18.11 65.3187 17.945 64.9813 17.615C64.644 17.285 64.4753 16.8487 64.4753 16.306ZM67.4233 16.262V12.28C67.4233 11.6787 67.1043 11.378 66.4663 11.378C65.8283 11.378 65.5093 11.6787 65.5093 12.28V16.262C65.5093 16.8707 65.8283 17.175 66.4663 17.175C67.1043 17.175 67.4233 16.8707 67.4233 16.262ZM66.4773 9.431L66.0593 10.091H65.4873L66.0703 8.892H66.8733L67.4563 10.091H66.8843L66.4773 9.431ZM72.9213 10.542H73.9443V18H72.8443C71.693 15.0593 70.9413 13.1087 70.5893 12.148C70.5893 12.2287 70.604 12.3973 70.6333 12.654C70.692 13.292 70.7213 13.9997 70.7213 14.777V18H69.7093V10.542H70.8203C71.8397 13.1233 72.4593 14.722 72.6793 15.338C72.8993 15.954 73.024 16.3023 73.0533 16.383C73.0533 16.317 73.0313 15.9943 72.9873 15.415C72.9507 14.8283 72.9287 14.2637 72.9213 13.721V10.542ZM75.196 12.192C75.196 11.6567 75.3757 11.2387 75.735 10.938C76.1017 10.6373 76.6554 10.487 77.396 10.487C77.8947 10.487 78.3604 10.5493 78.793 10.674V11.664C78.353 11.5173 77.891 11.444 77.407 11.444C76.6297 11.444 76.241 11.7227 76.241 12.28V16.328C76.241 16.856 76.5637 17.12 77.209 17.12C77.5684 17.12 77.8397 17.0577 78.023 16.933V14.238H79.046V17.615C78.5107 17.9083 77.9094 18.055 77.242 18.055C76.582 18.055 76.076 17.9193 75.724 17.648C75.372 17.3693 75.196 16.955 75.196 16.405V12.192ZM86.2794 12.236V12.885C86.2794 13.5817 86.0154 14.029 85.4874 14.227C86.0594 14.4177 86.3454 14.8797 86.3454 15.613V16.306C86.3454 16.856 86.1914 17.2777 85.8834 17.571C85.5827 17.857 85.1354 18 84.5414 18H82.3744V10.542H84.4754C85.0694 10.542 85.5167 10.6887 85.8174 10.982C86.1254 11.268 86.2794 11.686 86.2794 12.236ZM84.3544 11.433H83.4084V13.787H84.3544C84.9557 13.787 85.2564 13.501 85.2564 12.929V12.28C85.2564 11.7153 84.9557 11.433 84.3544 11.433ZM85.3224 16.262V15.558C85.3224 14.9933 85.0217 14.711 84.4204 14.711H83.4084V17.109H84.4204C85.0217 17.109 85.3224 16.8267 85.3224 16.262ZM90.7301 18L90.3231 16.02H88.4751L88.0681 18H87.0561L88.6841 10.542H90.1361L91.7421 18H90.7301ZM88.6511 15.129H90.1361L89.3881 11.51L88.6511 15.129ZM90.3891 8.892L89.6851 10.091H89.0691L89.5091 8.892H90.3891ZM95.4175 12.28C95.4175 11.6787 95.0985 11.378 94.4605 11.378C93.8225 11.378 93.5035 11.6787 93.5035 12.28V16.262C93.5035 16.8707 93.8225 17.175 94.4605 17.175C95.0985 17.175 95.4175 16.8707 95.4175 16.262V12.28ZM92.4695 12.247C92.4695 11.697 92.6345 11.257 92.9645 10.927C93.3018 10.597 93.7968 10.432 94.4495 10.432C95.1095 10.432 95.6081 10.6007 95.9455 10.938C96.2828 11.268 96.4515 11.7043 96.4515 12.247V16.306C96.4515 16.8487 96.2828 17.285 95.9455 17.615C95.6081 17.945 95.1131 18.11 94.4605 18.11C93.8078 18.11 93.3128 17.945 92.9755 17.615C92.6381 17.285 92.4695 16.8487 92.4695 16.306V12.247Z" fill="white"/>
<circle cx="18.5" cy="18.5" r="16.5" fill="#0084CC" stroke="#FFFDFD" stroke-width="4"/>
<path d="M6 21L9 18L17 26L31.5 11.5L34.5 14.5L17 32L6 21Z" fill="white"/>
<path d="M42.5 20.5H97.5" stroke="white"/>
<path d="M42.354 23.8H44.856L45.198 24.286V24.928L44.61 25.54H44.64L45.252 26.44V27.652L44.688 28H42.354V23.8ZM43.08 24.472V25.54H43.674L44.466 24.706V24.472H43.08ZM43.08 26.212V27.322H44.532V26.56L44.28 26.212H43.08ZM46.5097 23.8H48.3157L48.8437 24.604V27.424L48.2977 28H46.4977L45.9517 27.196V24.376L46.5097 23.8ZM46.6777 27.064L46.8517 27.322H48.0037L48.1177 27.202V24.736L47.9437 24.478H46.7857L46.6777 24.598V27.064ZM46.9777 29.2V28.36H47.8177V29.2H46.9777ZM47.5777 22.11L48.5137 22.824L48.1717 23.214L47.3977 22.722L46.6297 23.214L46.2817 22.824L47.2237 22.11H47.5777ZM53.783 23.8H55.583L56.069 24.532L55.589 25.036L55.223 24.484H54.059L53.951 24.604V27.058L54.125 27.322H55.277L55.703 26.896L56.081 27.46L55.565 28H53.765L53.225 27.196V24.364L53.783 23.8ZM57.3026 23.8H59.1086L59.6366 24.604V27.424L59.0906 28H57.2906L56.7446 27.196V24.376L57.3026 23.8ZM57.4706 27.064L57.6446 27.322H58.7966L58.9106 27.202V24.736L58.7366 24.478H57.5786L57.4706 24.598V27.064ZM58.3706 22.456H58.0166L57.0746 23.17L57.4226 23.56L58.1906 23.068L58.9646 23.56L59.3066 23.17L58.3706 22.456ZM62.5143 23.8H63.2403V28H62.5143V26.68L61.1163 24.598H61.0683V28H60.3423V23.8H61.4763L62.5143 25.444V23.8ZM64.4919 23.8H66.2799L66.7719 24.538L66.2919 25.024L65.9259 24.478H64.7739L64.6659 24.592V27.088L64.8159 27.322H66.1119V26.098H65.2659V25.426H66.5319L66.8319 25.882V28H64.4559L63.9399 27.226V24.376L64.4919 23.8ZM71.0153 23.8H74.1473V24.478H72.5513L72.9473 24.832V28H72.2213V25L72.0473 24.478H71.0153V23.8ZM74.7269 23.8H75.4529V25.612L75.8009 25.42H76.5749L76.9049 25.612V23.8H77.6309V28H76.9049V26.344L76.7369 26.092H75.5549L75.4529 26.206V28H74.7269V23.8ZM82.0026 24.268C82.0986 24.232 82.1766 24.176 82.2366 24.1C82.3006 24.024 82.3466 23.93 82.3746 23.818C82.4066 23.702 82.4226 23.576 82.4226 23.44H83.3046L83.3466 23.506C83.3146 23.666 83.2706 23.818 83.2146 23.962C83.1586 24.106 83.0826 24.236 82.9866 24.352C82.8906 24.464 82.7626 24.56 82.6026 24.64C82.4426 24.716 82.2426 24.772 82.0026 24.808V26.488C82.0026 26.784 81.9366 27.052 81.8046 27.292C81.6766 27.528 81.4806 27.716 81.2166 27.856C80.9566 27.992 80.6266 28.06 80.2266 28.06C79.6586 28.06 79.2266 27.916 78.9306 27.628C78.6346 27.336 78.4866 26.952 78.4866 26.476V23.716H79.3926V26.41C79.3926 26.726 79.4646 26.954 79.6086 27.094C79.7526 27.23 79.9666 27.298 80.2506 27.298C80.4506 27.298 80.6126 27.266 80.7366 27.202C80.8606 27.134 80.9506 27.034 81.0066 26.902C81.0666 26.766 81.0966 26.6 81.0966 26.404V23.716H82.0026V24.268ZM87.6546 25.852C87.6546 26.184 87.6126 26.486 87.5286 26.758C87.4486 27.026 87.3246 27.258 87.1566 27.454C86.9926 27.65 86.7806 27.8 86.5206 27.904C86.2646 28.008 85.9626 28.06 85.6146 28.06C85.2666 28.06 84.9626 28.008 84.7026 27.904C84.4466 27.796 84.2346 27.646 84.0666 27.454C83.9026 27.258 83.7786 27.024 83.6946 26.752C83.6146 26.48 83.5746 26.178 83.5746 25.846C83.5746 25.402 83.6466 25.016 83.7906 24.688C83.9386 24.36 84.1646 24.106 84.4686 23.926C84.7726 23.742 85.1586 23.65 85.6266 23.65C85.9706 23.65 86.2706 23.702 86.5266 23.806C86.7866 23.91 86.9986 24.056 87.1626 24.244C87.2226 24.204 87.2726 24.146 87.3126 24.07C87.3526 23.99 87.3826 23.898 87.4026 23.794C87.4226 23.686 87.4326 23.568 87.4326 23.44H88.3146L88.3566 23.506C88.2926 23.834 88.1926 24.1 88.0566 24.304C87.9206 24.504 87.7266 24.656 87.4746 24.76C87.5346 24.916 87.5786 25.086 87.6066 25.27C87.6386 25.45 87.6546 25.644 87.6546 25.852ZM84.5286 25.852C84.5286 26.152 84.5666 26.41 84.6426 26.626C84.7186 26.842 84.8366 27.008 84.9966 27.124C85.1566 27.24 85.3626 27.298 85.6146 27.298C85.8746 27.298 86.0826 27.24 86.2386 27.124C86.3986 27.008 86.5146 26.842 86.5866 26.626C86.6626 26.41 86.7006 26.152 86.7006 25.852C86.7006 25.4 86.6166 25.046 86.4486 24.79C86.2806 24.534 86.0046 24.406 85.6206 24.406C85.3646 24.406 85.1566 24.464 84.9966 24.58C84.8366 24.696 84.7186 24.862 84.6426 25.078C84.5666 25.294 84.5286 25.552 84.5286 25.852ZM90.7037 23.8H91.4297V28H90.7037V26.68L89.3057 24.598H89.2577V28H88.5317V23.8H89.6657L90.7037 25.444V23.8ZM92.6814 23.8H94.4694L94.9614 24.538L94.4814 25.024L94.1154 24.478H92.9634L92.8554 24.592V27.088L93.0054 27.322H94.3014V26.098H93.4554V25.426H94.7214L95.0214 25.882V28H92.6454L92.1294 27.226V24.376L92.6814 23.8Z" fill="white"/>
<path d="M8 16.46C8 9.46069 17 3.46089 24.5 9.46078" stroke="white" stroke-opacity="0.6" stroke-width="2" stroke-linecap="round"/>
</svg>
