<svg width="82" height="32" viewBox="0 0 82 32" fill="none" xmlns="http://www.w3.org/2000/svg">
<rect width="82" height="32" rx="2" fill="#1B75BB"/>
<path d="M31.8153 17H27.9482V6.09091H31.8473C32.9446 6.09091 33.8892 6.3093 34.6811 6.74609C35.473 7.17933 36.082 7.80256 36.5082 8.61577C36.9379 9.42898 37.1527 10.402 37.1527 11.5348C37.1527 12.6712 36.9379 13.6477 36.5082 14.4645C36.082 15.2812 35.4695 15.908 34.6705 16.3448C33.875 16.7816 32.9233 17 31.8153 17ZM30.2546 15.0238H31.7195C32.4013 15.0238 32.9748 14.9031 33.44 14.6616C33.9087 14.4165 34.2603 14.0384 34.4947 13.527C34.7326 13.0121 34.8516 12.348 34.8516 11.5348C34.8516 10.7287 34.7326 10.07 34.4947 9.55859C34.2603 9.04723 33.9105 8.67081 33.4453 8.42933C32.9801 8.18786 32.4066 8.06712 31.7248 8.06712H30.2546V15.0238ZM38.8612 6.09091H41.7057L44.71 13.4205H44.8378L47.8421 6.09091H50.6865V17H48.4493V9.8995H48.3588L45.5356 16.9467H44.0122L41.189 9.87287H41.0985V17H38.8612V6.09091ZM62.2122 9.91016H59.8791C59.8365 9.60831 59.7495 9.3402 59.6181 9.10582C59.4867 8.8679 59.318 8.66548 59.112 8.49858C58.9061 8.33168 58.6681 8.20383 58.3983 8.11506C58.1319 8.02628 57.8425 7.98189 57.53 7.98189C56.9654 7.98189 56.4735 8.12216 56.0545 8.4027C55.6355 8.67969 55.3105 9.08452 55.0797 9.61719C54.8489 10.1463 54.7335 10.7891 54.7335 11.5455C54.7335 12.3232 54.8489 12.9766 55.0797 13.5057C55.3141 14.0348 55.6408 14.4343 56.0598 14.7042C56.4789 14.9741 56.9636 15.109 57.514 15.109C57.823 15.109 58.1088 15.0682 58.3716 14.9865C58.638 14.9048 58.8741 14.7859 59.0801 14.6296C59.286 14.4698 59.4565 14.2763 59.5914 14.049C59.7299 13.8217 59.8258 13.5625 59.8791 13.2713L62.2122 13.282C62.1518 13.7827 62.0009 14.2656 61.7594 14.7308C61.5215 15.1925 61.2001 15.6062 60.7953 15.9719C60.394 16.3342 59.9146 16.6218 59.3571 16.8349C58.8031 17.0444 58.1763 17.1491 57.4767 17.1491C56.5037 17.1491 55.6337 16.929 54.8667 16.4886C54.1032 16.0483 53.4995 15.4109 53.0556 14.5763C52.6152 13.7418 52.3951 12.7315 52.3951 11.5455C52.3951 10.3558 52.6188 9.34375 53.0662 8.50923C53.5137 7.67472 54.1209 7.03906 54.888 6.60227C55.655 6.16193 56.5179 5.94176 57.4767 5.94176C58.1088 5.94176 58.6948 6.03054 59.2346 6.2081C59.7779 6.38565 60.2591 6.64489 60.6781 6.98579C61.0971 7.32315 61.438 7.73686 61.7008 8.22692C61.9672 8.71697 62.1376 9.27805 62.2122 9.91016ZM65.5414 17H63.0698L66.8358 6.09091H69.8081L73.5687 17H71.0971L68.3645 8.58381H68.2793L65.5414 17ZM65.3869 12.712H71.225V14.5124H65.3869V12.712Z" fill="white"/>
<path d="M28.4741 26V20.5455H30.6261C31.0398 20.5455 31.3922 20.6245 31.6834 20.7825C31.9746 20.9387 32.1966 21.1562 32.3493 21.435C32.5037 21.712 32.581 22.0316 32.581 22.3938C32.581 22.756 32.5028 23.0756 32.3466 23.3526C32.1903 23.6296 31.964 23.8453 31.6674 23.9998C31.3727 24.1543 31.0158 24.2315 30.5968 24.2315H29.2251V23.3074H30.4103C30.6323 23.3074 30.8152 23.2692 30.959 23.1928C31.1046 23.1147 31.2129 23.0073 31.2839 22.8706C31.3567 22.7321 31.3931 22.5732 31.3931 22.3938C31.3931 22.2127 31.3567 22.0547 31.2839 21.9197C31.2129 21.783 31.1046 21.6774 30.959 21.6028C30.8134 21.5265 30.6287 21.4883 30.405 21.4883H29.6273V26H28.4741ZM33.33 26V20.5455H35.482C35.894 20.5455 36.2455 20.6191 36.5367 20.7665C36.8297 20.9121 37.0525 21.119 37.2052 21.3871C37.3597 21.6534 37.4369 21.9668 37.4369 22.3272C37.4369 22.6895 37.3588 23.0011 37.2025 23.2621C37.0463 23.5213 36.8199 23.7202 36.5234 23.8587C36.2286 23.9972 35.8718 24.0664 35.4527 24.0664H34.0119V23.1396H35.2663C35.4865 23.1396 35.6693 23.1094 35.8149 23.049C35.9605 22.9886 36.0688 22.8981 36.1399 22.7773C36.2127 22.6566 36.2491 22.5066 36.2491 22.3272C36.2491 22.1461 36.2127 21.9934 36.1399 21.8691C36.0688 21.7449 35.9597 21.6507 35.8123 21.5868C35.6667 21.5211 35.4829 21.4883 35.261 21.4883H34.4833V26H33.33ZM36.2757 23.5178L37.6313 26H36.3583L35.0319 23.5178H36.2757ZM43.2643 23.2727C43.2643 23.8675 43.1516 24.3736 42.9261 24.7908C42.7024 25.2081 42.397 25.5268 42.0099 25.747C41.6246 25.9654 41.1914 26.0746 40.7102 26.0746C40.2255 26.0746 39.7904 25.9645 39.4051 25.7443C39.0198 25.5241 38.7153 25.2054 38.4916 24.7882C38.2679 24.3709 38.156 23.8658 38.156 23.2727C38.156 22.6779 38.2679 22.1719 38.4916 21.7546C38.7153 21.3374 39.0198 21.0195 39.4051 20.8011C39.7904 20.581 40.2255 20.4709 40.7102 20.4709C41.1914 20.4709 41.6246 20.581 42.0099 20.8011C42.397 21.0195 42.7024 21.3374 42.9261 21.7546C43.1516 22.1719 43.2643 22.6779 43.2643 23.2727ZM42.0951 23.2727C42.0951 22.8874 42.0374 22.5625 41.922 22.2979C41.8084 22.0334 41.6477 21.8327 41.4399 21.696C41.2322 21.5593 40.9889 21.4909 40.7102 21.4909C40.4314 21.4909 40.1882 21.5593 39.9804 21.696C39.7727 21.8327 39.6111 22.0334 39.4957 22.2979C39.3821 22.5625 39.3252 22.8874 39.3252 23.2727C39.3252 23.658 39.3821 23.983 39.4957 24.2475C39.6111 24.5121 39.7727 24.7127 39.9804 24.8494C40.1882 24.9862 40.4314 25.0545 40.7102 25.0545C40.9889 25.0545 41.2322 24.9862 41.4399 24.8494C41.6477 24.7127 41.8084 24.5121 41.922 24.2475C42.0374 23.983 42.0951 23.658 42.0951 23.2727ZM43.6618 21.4963V20.5455H48.1416V21.4963H46.4717V26H45.3318V21.4963H43.6618ZM48.8794 26V20.5455H52.5548V21.4963H50.0326V22.796H52.3657V23.7468H50.0326V25.0492H52.5654V26H48.8794ZM58.2843 22.4551H57.1178C57.0965 22.3042 57.053 22.1701 56.9873 22.0529C56.9216 21.9339 56.8372 21.8327 56.7342 21.7493C56.6313 21.6658 56.5123 21.6019 56.3774 21.5575C56.2442 21.5131 56.0995 21.4909 55.9432 21.4909C55.6609 21.4909 55.415 21.5611 55.2055 21.7013C54.996 21.8398 54.8335 22.0423 54.7181 22.3086C54.6027 22.5732 54.545 22.8945 54.545 23.2727C54.545 23.6616 54.6027 23.9883 54.7181 24.2528C54.8353 24.5174 54.9986 24.7172 55.2081 24.8521C55.4177 24.987 55.66 25.0545 55.9352 25.0545C56.0897 25.0545 56.2326 25.0341 56.364 24.9933C56.4972 24.9524 56.6153 24.8929 56.7183 24.8148C56.8212 24.7349 56.9065 24.6381 56.9739 24.5245C57.0432 24.4109 57.0911 24.2812 57.1178 24.1357L58.2843 24.141C58.2541 24.3913 58.1787 24.6328 58.0579 24.8654C57.939 25.0962 57.7783 25.3031 57.5759 25.486C57.3752 25.6671 57.1355 25.8109 56.8568 25.9174C56.5798 26.0222 56.2664 26.0746 55.9166 26.0746C55.4301 26.0746 54.9951 25.9645 54.6116 25.7443C54.2298 25.5241 53.928 25.2054 53.706 24.7882C53.4858 24.3709 53.3758 23.8658 53.3758 23.2727C53.3758 22.6779 53.4876 22.1719 53.7113 21.7546C53.9351 21.3374 54.2387 21.0195 54.6222 20.8011C55.0057 20.581 55.4372 20.4709 55.9166 20.4709C56.2326 20.4709 56.5256 20.5153 56.7955 20.604C57.0672 20.6928 57.3078 20.8224 57.5173 20.9929C57.7268 21.1616 57.8972 21.3684 58.0286 21.6135C58.1618 21.8585 58.247 22.139 58.2843 22.4551ZM58.9035 21.4963V20.5455H63.3833V21.4963H61.7134V26H60.5735V21.4963H58.9035ZM64.121 26V20.5455H67.7965V21.4963H65.2743V22.796H67.6074V23.7468H65.2743V25.0492H67.8071V26H64.121ZM70.6469 26H68.7133V20.5455H70.6629C71.2116 20.5455 71.6839 20.6547 72.0798 20.873C72.4758 21.0897 72.7803 21.4013 72.9933 21.8079C73.2082 22.2145 73.3156 22.701 73.3156 23.2674C73.3156 23.8356 73.2082 24.3239 72.9933 24.7322C72.7803 25.1406 72.474 25.454 72.0745 25.6724C71.6768 25.8908 71.2009 26 70.6469 26ZM69.8666 25.0119H70.599C70.9399 25.0119 71.2267 24.9515 71.4593 24.8308C71.6936 24.7083 71.8694 24.5192 71.9866 24.2635C72.1056 24.006 72.165 23.674 72.165 23.2674C72.165 22.8643 72.1056 22.535 71.9866 22.2793C71.8694 22.0236 71.6945 21.8354 71.4619 21.7147C71.2293 21.5939 70.9426 21.5336 70.6017 21.5336H69.8666V25.0119Z" fill="white" fill-opacity="0.67"/>
<path d="M24.3157 12.6257H23.1385V9.69429C23.1385 7.91885 22.4391 6.21613 21.1941 4.96071C19.9492 3.70529 18.2606 3 16.5 3C14.7394 3 13.0508 3.70529 11.8059 4.96071C10.5609 6.21613 9.86151 7.91885 9.86151 9.69429V12.6257H8.68426C8.50279 12.6257 8.32875 12.6984 8.20042 12.8278C8.0721 12.9572 8.00001 13.1327 8.00001 13.3157V26.3057C7.99945 26.3967 8.01674 26.4869 8.05087 26.5711C8.08501 26.6553 8.13532 26.7319 8.19892 26.7964C8.26251 26.8609 8.33813 26.9121 8.42143 26.9471C8.50472 26.982 8.59405 27 8.68426 27H24.3157C24.406 27 24.4953 26.982 24.5786 26.9471C24.6619 26.9121 24.7375 26.8609 24.8011 26.7964C24.8647 26.7319 24.915 26.6553 24.9491 26.5711C24.9833 26.4869 25.0005 26.3967 25 26.3057V13.3157C25 13.1327 24.9279 12.9572 24.7996 12.8278C24.6713 12.6984 24.4972 12.6257 24.3157 12.6257ZM17.571 20.5286V23.2971C17.571 23.4108 17.5262 23.5198 17.4465 23.6002C17.3668 23.6806 17.2587 23.7257 17.146 23.7257H15.871C15.7583 23.7257 15.6502 23.6806 15.5705 23.6002C15.4908 23.5198 15.446 23.4108 15.446 23.2971V20.5286C15.1231 20.3007 14.8807 19.9749 14.7539 19.5986C14.6272 19.2223 14.6227 18.815 14.7412 18.436C14.8597 18.057 15.0949 17.7259 15.4127 17.4909C15.7305 17.2558 16.1144 17.1291 16.5085 17.1291C16.9026 17.1291 17.2865 17.2558 17.6043 17.4909C17.9221 17.7259 18.1573 18.057 18.2758 18.436C18.3943 18.815 18.3898 19.2223 18.2631 19.5986C18.1363 19.9749 17.8939 20.3007 17.571 20.5286ZM19.968 12.6257H13.032V9.69429C13.032 9.23503 13.1217 8.78028 13.296 8.35599C13.4703 7.93169 13.7257 7.54617 14.0478 7.22143C14.3698 6.89669 14.7521 6.63909 15.1729 6.46335C15.5936 6.2876 16.0446 6.19714 16.5 6.19714C16.9554 6.19714 17.4064 6.2876 17.8271 6.46335C18.2479 6.63909 18.6302 6.89669 18.9522 7.22143C19.2743 7.54617 19.5297 7.93169 19.704 8.35599C19.8783 8.78028 19.968 9.23503 19.968 9.69429V12.6257Z" fill="white"/>
</svg>
