<svg width="40" height="40" viewBox="0 0 40 40" fill="none" xmlns="http://www.w3.org/2000/svg">
<g clip-path="url(#clip0_488_44)">
<circle cx="20" cy="20" r="20" fill="#1877F2"/>
<path d="M29 7.50007C29 9.15007 29 11.3001 29 13.0001C28 13.0001 23 12.5001 23 15.0001C23 17.0001 23 17.9998 23 20C24.65 20 26.3 20 28 20C28 21.98 28 23.96 28 26C26.35 26 24.7 26 23 26C23 30.62 23 35.24 23 40C21.02 40 19.04 40 17 40C17 35.38 17 30.76 17 26C15.35 26 13.7 26 12 26C12 24.02 12 22.04 12 20C13.65 20 15.3 20 17 20C17 19 17 17 17 15.9998C17.0214 12.9873 17 11.5 18.5 9.49984C21.5 7.00007 25 7.5 29 7.50007Z" fill="#FBFDFE"/>
</g>
<defs>
<clipPath id="clip0_488_44">
<rect width="40" height="40" fill="white"/>
</clipPath>
</defs>
</svg>
