<svg width="61" height="61" viewBox="0 0 61 61" fill="none" xmlns="http://www.w3.org/2000/svg">
<path d="M10.7612 13.1401H10.269C8.20068 13.1401 6.51904 14.8218 6.51904 16.8901V20.189C6.57178 20.0601 6.62451 19.9253 6.68311 19.7964C7.7085 17.3706 9.07959 15.144 10.7612 13.1401ZM6.5249 39.8413V43.1401C6.5249 45.2085 8.20654 46.8901 10.2749 46.8901H10.7671C9.07959 44.8862 7.71436 42.6538 6.68896 40.228C6.63037 40.105 6.57764 39.9702 6.5249 39.8413Z" fill="#FFEA00"/>
<path d="M51.4663 13.1401H16.0054C11.3296 17.2651 8.37061 23.3003 8.37061 30.0151C8.37061 36.73 11.3296 42.7651 16.0054 46.8901H51.4605C53.5288 46.8901 55.2105 45.2085 55.2105 43.1401V16.8901C55.2163 14.8159 53.5405 13.1401 51.4663 13.1401Z" fill="#536DFE"/>
<path d="M8.20068 16.9897L30.8706 39.4839L53.2886 16.896L30.8706 31.8843L8.20068 16.9897ZM42.9351 49.0112C42.062 49.5679 41.8042 50.728 42.3608 51.6011C42.7183 52.1636 43.3218 52.4683 43.9429 52.4683C44.2886 52.4683 44.6343 52.3745 44.9507 52.1753C47.2183 50.7339 49.2515 48.9409 50.9741 46.8901H45.7593C44.8804 47.6636 43.937 48.3726 42.9351 49.0112ZM55.2163 20.1772V39.8354C56.4644 36.73 57.1206 33.3901 57.1206 30.0151C57.1206 26.5933 56.4702 23.271 55.2163 20.1772Z" fill="#FFEA00"/>
<path d="M46.2397 8.73389C44.0132 7.12256 41.5581 5.87451 38.9565 5.03662C36.3491 4.19287 33.6304 3.76514 30.8706 3.76514C27.3257 3.76514 23.8921 4.45654 20.6519 5.82764C17.5229 7.15186 14.7163 9.04443 12.3081 11.4526C11.769 11.9917 11.2534 12.5542 10.7612 13.1343C9.07373 15.1382 7.7085 17.3706 6.68311 19.7964C6.63037 19.9253 6.57178 20.0542 6.51904 20.189C5.25928 23.312 4.62061 26.6167 4.62061 30.0151C4.62061 33.4136 5.25928 36.7183 6.5249 39.8413C6.57764 39.9702 6.63037 40.105 6.68897 40.2339C7.71436 42.6597 9.07959 44.8921 10.7671 46.896C11.2534 47.4761 11.769 48.0386 12.314 48.5776C14.7222 50.9858 17.5288 52.8784 20.6577 54.2026C23.8921 55.5737 27.3257 56.2651 30.8706 56.2651C32.2241 56.2651 33.5835 56.1597 34.9136 55.9546C35.939 55.7964 36.6362 54.8413 36.478 53.8159C36.3198 52.7905 35.3589 52.0933 34.3394 52.2515C33.1968 52.4272 32.0308 52.5151 30.8706 52.5151C25.1812 52.5151 19.9722 50.3882 16.0054 46.8901C11.3296 42.7651 8.37061 36.73 8.37061 30.0151C8.37061 23.3003 11.3296 17.2651 16.0054 13.1401C19.9722 9.64209 25.1753 7.51514 30.8706 7.51514C33.2378 7.51514 35.5698 7.87842 37.8022 8.60498C40.8198 9.57764 43.5093 11.1421 45.7769 13.1401H50.9741C49.5854 11.4819 47.9976 10.0054 46.2397 8.73389Z" fill="#FFEA00"/>
<path d="M6.5249 16.8901V20.189C6.57764 20.0601 6.63037 19.9253 6.68897 19.7964C7.71436 17.3706 9.07959 15.1382 10.7671 13.1343H10.2749C8.20068 13.1401 6.5249 14.8159 6.5249 16.8901ZM10.2749 46.8901H10.7671C9.07959 44.8862 7.71436 42.6538 6.68897 40.228C6.63623 40.0991 6.57764 39.9702 6.5249 39.8354V43.1401C6.5249 45.2144 8.20068 46.8901 10.2749 46.8901ZM11.2593 18.9995L30.8706 31.8843L41.5874 24.7183C40.6968 20.3706 38.728 16.4097 35.9741 13.1343H16.0054C14.1128 14.8042 12.5073 16.7847 11.2593 18.9995Z" fill="#8C9EFF"/>
<path d="M42.062 28.2105L30.8706 39.4839L10.896 19.6675C9.28467 22.7671 8.37061 26.2827 8.37061 30.0151C8.37061 36.73 11.3296 42.7651 16.0054 46.8901H35.9741C39.812 42.3315 42.1206 36.4429 42.1206 30.0151C42.1206 29.4116 42.0972 28.8081 42.062 28.2105Z" fill="#8C9EFF"/>
<path d="M11.2593 18.9995C11.1362 19.2222 11.0132 19.4448 10.896 19.6675L30.8706 39.4839L42.062 28.2104C41.98 27.021 41.8218 25.855 41.5874 24.7183L30.8706 31.8843L11.2593 18.9995Z" fill="#FFFF00"/>
<path d="M8.37061 30.0151C8.37061 26.2827 9.28467 22.7671 10.896 19.6675C11.0132 19.4448 11.1304 19.2222 11.2593 18.9995C12.5073 16.7905 14.1187 14.8042 16.0112 13.1401C19.6499 9.9292 24.3315 7.87842 29.4761 7.56201C27.5668 6.4029 25.5169 5.49315 23.3765 4.85498C22.4565 5.13037 21.5483 5.45264 20.6577 5.8335C17.5288 7.15772 14.7222 9.05029 12.314 11.4585C11.7749 11.9976 11.2593 12.5601 10.7671 13.1401C9.07959 15.144 7.71436 17.3765 6.68897 19.8022C6.63623 19.9312 6.57764 20.0601 6.5249 20.1948C5.25928 23.312 4.62061 26.6167 4.62061 30.0151C4.62061 33.4136 5.25928 36.7183 6.5249 39.8413C6.57764 39.9702 6.63037 40.105 6.68897 40.2339C7.71436 42.6597 9.07959 44.8921 10.7671 46.896C11.2534 47.4761 11.769 48.0386 12.314 48.5776C14.7222 50.9858 17.5288 52.8784 20.6577 54.2026C21.5483 54.5776 22.4565 54.9058 23.3765 55.1812C25.5386 54.5366 27.5894 53.6226 29.4761 52.4741C24.3315 52.1577 19.6499 50.1069 16.0112 46.896C11.3296 42.7651 8.37061 36.73 8.37061 30.0151Z" fill="#FFFF00"/>
</svg>
