<svg width="40" height="40" viewBox="0 0 40 40" fill="none" xmlns="http://www.w3.org/2000/svg">
<g clip-path="url(#clip0_489_73)">
<circle cx="20" cy="20" r="20" fill="black"/>
<g filter="url(#filter0_dd_489_73)">
<path d="M20.0294 7.02084C21.3487 7 22.6582 7.01084 23.967 7C24.0105 8.69329 24.6746 10.2173 25.7311 11.3462L25.7295 11.3445C26.8667 12.4042 28.3463 13.0912 29.9774 13.2079L30 13.2096V17.4082C28.4591 17.3682 27.0101 17.0005 25.7037 16.3685L25.7698 16.3969C25.138 16.0826 24.6037 15.7599 24.096 15.3998L24.1379 15.4281C24.1282 18.4704 24.1475 21.5126 24.1177 24.544C24.0347 26.0889 23.5383 27.4979 22.7421 28.6743L22.7582 28.6484C21.4268 30.621 19.2702 31.9158 16.8179 31.9925H16.8066C16.7075 31.9975 16.5906 32 16.473 32C15.0787 32 13.7756 31.5981 12.6651 30.9003L12.6973 30.9195C10.6761 29.6614 9.2819 27.5087 9.02401 25.0051L9.02079 24.9709C9.00064 24.4498 8.99097 23.9287 9.01111 23.4185C9.40601 19.4341 12.6328 16.3519 16.5552 16.3519C16.996 16.3519 17.4279 16.391 17.8478 16.4653L17.8027 16.4586C17.8228 18.0001 17.7624 19.5425 17.7624 21.0841C17.4215 20.9565 17.0282 20.8823 16.618 20.8823C15.1126 20.8823 13.832 21.8778 13.3581 23.2676L13.3509 23.2926C13.2437 23.6486 13.1817 24.058 13.1817 24.4815C13.1817 24.6532 13.1921 24.8233 13.2115 24.9901L13.2099 24.9701C13.4774 26.6758 14.891 27.9631 16.5954 27.9631C16.6446 27.9631 16.693 27.9623 16.7413 27.9598H16.7341C17.9131 27.9231 18.9366 27.267 19.5152 26.2973L19.5233 26.2823C19.7385 25.9722 19.8859 25.597 19.9351 25.1893L19.9359 25.1776C20.0366 23.3126 19.9964 21.4584 20.006 19.5934C20.0157 15.3948 19.9964 11.2061 20.0262 7.01834L20.0294 7.02084Z" fill="white"/>
</g>
</g>
<defs>
<filter id="filter0_dd_489_73" x="8.25" y="6.25" width="22.45" height="26.25" filterUnits="userSpaceOnUse" color-interpolation-filters="sRGB">
<feFlood flood-opacity="0" result="BackgroundImageFix"/>
<feColorMatrix in="SourceAlpha" type="matrix" values="0 0 0 0 0 0 0 0 0 0 0 0 0 0 0 0 0 0 127 0" result="hardAlpha"/>
<feOffset dx="-0.75" dy="-0.75"/>
<feComposite in2="hardAlpha" operator="out"/>
<feColorMatrix type="matrix" values="0 0 0 0 0.52549 0 0 0 0 0.980392 0 0 0 0 0.964706 0 0 0 1 0"/>
<feBlend mode="normal" in2="BackgroundImageFix" result="effect1_dropShadow_489_73"/>
<feColorMatrix in="SourceAlpha" type="matrix" values="0 0 0 0 0 0 0 0 0 0 0 0 0 0 0 0 0 0 127 0" result="hardAlpha"/>
<feOffset dx="0.7" dy="0.5"/>
<feComposite in2="hardAlpha" operator="out"/>
<feColorMatrix type="matrix" values="0 0 0 0 0.996078 0 0 0 0 0.00392157 0 0 0 0 0.309804 0 0 0 1 0"/>
<feBlend mode="normal" in2="effect1_dropShadow_489_73" result="effect2_dropShadow_489_73"/>
<feBlend mode="normal" in="SourceGraphic" in2="effect2_dropShadow_489_73" result="shape"/>
</filter>
<clipPath id="clip0_489_73">
<rect width="40" height="40" fill="white"/>
</clipPath>
</defs>
</svg>
