<svg width="40" height="40" viewBox="0 0 40 40" fill="none" xmlns="http://www.w3.org/2000/svg">
<g clip-path="url(#clip0_488_51)">
<path d="M40 20C40 31.0457 31.0457 40 20 40C8.9543 40 0 31.0457 0 20C0 8.9543 8.9543 0 20 0C31.0457 0 40 8.9543 40 20Z" fill="#FF0000"/>
<path d="M8 15C8 13.3431 9.34315 12 11 12H28C29.6569 12 31 13.3431 31 15V25C31 26.6569 29.6569 28 28 28H11C9.34315 28 8 26.6569 8 25V15Z" fill="white"/>
<path d="M22.0807 19.2044C22.7471 19.5898 22.7464 20.5521 22.0795 20.9365L18.4994 23.0001C17.8325 23.3845 16.9995 22.9028 17 22.133L17.0029 18.0008C17.0034 17.231 17.8371 16.7504 18.5035 17.1358L22.0807 19.2044Z" fill="#FF0000"/>
</g>
<defs>
<clipPath id="clip0_488_51">
<rect width="40" height="40" fill="white"/>
</clipPath>
</defs>
</svg>
