<svg width="40" height="40" viewBox="0 0 40 40" fill="none" xmlns="http://www.w3.org/2000/svg">
<g clip-path="url(#clip0_488_36)">
<circle cx="20" cy="20" r="20" fill="#0180C7"/>
<path d="M14.1706 7.99426C14.2479 7.99471 14.3251 7.99512 14.4024 7.99549C14.5882 7.99646 14.7741 7.99796 14.96 7.99989C14.8659 8.09656 14.7705 8.17052 14.6581 8.24551C14.3866 8.4299 14.1386 8.63912 13.8963 8.86028C13.843 8.90894 13.7893 8.95719 13.7353 9.00512C13.5708 9.1519 13.4214 9.30114 13.28 9.46989C13.2533 9.50006 13.2266 9.53017 13.1998 9.56024C12.2164 10.6718 11.5839 12.0527 11.15 13.4599C11.1426 13.4833 11.1352 13.5066 11.1276 13.5307C10.7143 14.8463 10.5725 16.2681 10.5744 17.6411C10.5744 17.6824 10.5744 17.6824 10.5745 17.7245C10.5768 18.8089 10.6817 19.9046 10.94 20.9599C10.9446 20.9786 10.9491 20.9972 10.9538 21.0165C11.2679 22.2965 11.7072 23.5552 12.4356 24.663C12.7033 25.072 12.8025 25.4111 12.7062 25.8979C12.5765 26.49 12.3365 26.9902 11.9436 27.4529C11.863 27.5498 11.84 27.5788 11.84 27.7099C11.9335 27.8034 12.2845 27.7491 12.4222 27.7494C13.2416 27.7485 14.0173 27.5774 14.7727 27.2589C14.9211 27.2146 15.0068 27.2367 15.1418 27.3092C15.1757 27.3307 15.2095 27.3524 15.2431 27.3743C16.868 28.3856 18.7485 28.8763 20.63 29.1199C20.6515 29.1227 20.673 29.1255 20.6952 29.1283C21.8454 29.2749 23.0477 29.2696 24.2 29.1499C24.2387 29.1462 24.2773 29.1425 24.3171 29.1386C26.6029 28.9186 29.0143 28.2297 30.83 26.7799C30.8604 26.7558 30.8908 26.7318 30.9221 26.707C31.1962 26.4863 31.4525 26.2499 31.7019 26.0018C31.7219 25.9819 31.742 25.962 31.7626 25.9415C31.7813 25.9227 31.7999 25.904 31.8192 25.8847C31.836 25.8679 31.8527 25.851 31.87 25.8337C31.9131 25.7905 31.9131 25.7905 31.94 25.7299C31.9598 25.7299 31.9796 25.7299 32 25.7299C32.028 27.4885 31.7149 29.1228 30.4743 30.435C30.3233 30.5908 30.164 30.7301 29.99 30.8599C29.9744 30.8717 29.9588 30.8836 29.9427 30.8958C29.2641 31.4095 28.4976 31.7412 27.6594 31.8855C27.6191 31.8925 27.6191 31.8925 27.5781 31.8996C27.4822 31.9149 27.3863 31.9275 27.29 31.9399C27.2709 31.9424 27.2518 31.9449 27.2322 31.9476C26.6403 32.0225 26.0434 32.0087 25.4481 32.0082C25.288 32.0081 25.128 32.0084 24.9679 32.0086C24.6552 32.009 24.3424 32.009 24.0297 32.009C23.7751 32.0089 23.5206 32.009 23.2661 32.0091C23.2115 32.0091 23.2115 32.0091 23.1558 32.0091C23.0819 32.0092 23.008 32.0092 22.9341 32.0093C22.2425 32.0096 21.5508 32.0095 20.8591 32.0093C20.2282 32.0092 19.5973 32.0095 18.9664 32.0101C18.3167 32.0107 17.6669 32.0109 17.0171 32.0108C16.6531 32.0107 16.2891 32.0108 15.9251 32.0112C15.6152 32.0116 15.3052 32.0116 14.9952 32.0113C14.8375 32.0111 14.6798 32.0111 14.5221 32.0114C12.8235 32.0151 11.1671 31.876 9.83 30.7099C9.81522 30.6971 9.80043 30.6843 9.7852 30.6711C9.23422 30.1898 8.80867 29.6085 8.51 28.9399C8.50174 28.9215 8.49347 28.9031 8.48496 28.8841C7.99358 27.7689 7.99063 26.5513 7.99215 25.3556C7.99229 25.1962 7.99208 25.0369 7.99192 24.8776C7.99165 24.5664 7.99171 24.2553 7.99188 23.9441C7.99202 23.691 7.99203 23.4379 7.99197 23.1848C7.99196 23.1486 7.99195 23.1124 7.99194 23.0752C7.99192 23.0017 7.9919 22.9282 7.99188 22.8547C7.99171 22.1672 7.99191 21.4797 7.99223 20.7922C7.9925 20.2036 7.99245 19.615 7.99218 19.0264C7.99185 18.3412 7.99173 17.6559 7.99191 16.9706C7.99193 16.8974 7.99195 16.8242 7.99197 16.751C7.99198 16.715 7.99199 16.679 7.992 16.6419C7.99205 16.3894 7.99196 16.1368 7.99182 15.8843C7.99165 15.5762 7.9917 15.268 7.99202 14.9599C7.99217 14.803 7.99224 14.6461 7.99204 14.4892C7.99027 12.982 7.99027 12.982 8.12937 12.3086C8.13596 12.276 8.14254 12.2433 8.14932 12.2097C8.42877 10.8595 9.16435 9.68294 10.314 8.90353C11.4823 8.13879 12.8033 7.98001 14.1706 7.99426Z" fill="white"/>
<path d="M31.94 25.7299C31.9598 25.7299 31.9796 25.7299 32 25.7299C32.028 27.4885 31.7149 29.1228 30.4743 30.435C30.3233 30.5908 30.164 30.7301 29.99 30.8599C29.9744 30.8717 29.9588 30.8836 29.9427 30.8958C29.2641 31.4095 28.4976 31.7412 27.6594 31.8855C27.6325 31.8902 27.6057 31.8948 27.5781 31.8996C26.9392 32.0018 26.2984 32.0102 25.6531 32.0127C25.5497 32.0131 25.4463 32.0138 25.3429 32.0144C24.9737 32.0167 24.6045 32.0182 24.2353 32.0196C24.1763 32.0198 24.1173 32.02 24.0583 32.0202C23.5073 32.0222 22.9562 32.024 22.4051 32.0251C22.2781 32.0254 22.1511 32.0257 22.0241 32.0259C21.9925 32.026 21.961 32.0261 21.9284 32.0261C21.4159 32.0273 20.9034 32.03 20.3908 32.0333C19.8633 32.0367 19.3358 32.0386 18.8083 32.0391C18.5126 32.0394 18.2169 32.0404 17.9212 32.043C17.6698 32.0453 17.4184 32.0462 17.167 32.0454C17.0388 32.045 16.9108 32.0453 16.7826 32.0473C15.9331 32.0597 15.9331 32.0597 15.7278 31.8631C15.6607 31.783 15.6108 31.7014 15.5599 31.61C15.5269 31.5694 15.4931 31.5294 15.4577 31.4909C15.4417 31.4725 15.4258 31.454 15.4093 31.435C15.2608 31.2724 15.1015 31.1198 14.9449 30.965C14.5402 30.5648 14.5402 30.5648 14.3821 30.3789C14.2662 30.2481 14.1393 30.1276 14.0149 30.005C13.8504 29.8428 13.6882 29.6811 13.5378 29.5056C13.4574 29.4123 13.3735 29.3223 13.2893 29.2325C13.2697 29.2116 13.2501 29.1907 13.2299 29.1692C12.9799 28.9051 12.7212 28.6497 12.4627 28.3939C12.0295 27.9643 12.0295 27.9643 11.8999 27.77C11.9269 27.7697 11.9538 27.7694 11.9816 27.7691C12.9573 27.7565 13.8649 27.6416 14.7727 27.2589C14.9211 27.2146 15.0068 27.2367 15.1418 27.3092C15.1757 27.3307 15.2095 27.3524 15.2431 27.3743C16.868 28.3856 18.7485 28.8763 20.63 29.1199C20.6515 29.1227 20.673 29.1255 20.6952 29.1283C21.8454 29.2749 23.0477 29.2696 24.2 29.1499C24.2387 29.1462 24.2773 29.1425 24.3171 29.1386C26.6029 28.9186 29.0143 28.2297 30.83 26.7799C30.8756 26.7438 30.8756 26.7438 30.9221 26.707C31.1962 26.4863 31.4525 26.2499 31.7019 26.0018C31.7219 25.9819 31.742 25.962 31.7626 25.9415C31.7813 25.9227 31.7999 25.904 31.8192 25.8847C31.8444 25.8595 31.8444 25.8595 31.87 25.8337C31.9131 25.7905 31.9131 25.7905 31.94 25.7299Z" fill="white"/>
<path d="M22.1598 17.6299C22.1598 17.5408 22.1598 17.4517 22.1598 17.3599C22.4568 17.3599 22.7538 17.3599 23.0598 17.3599C23.0598 18.7954 23.0598 20.2309 23.0598 21.7099C22.4598 21.7099 22.4598 21.7099 22.3098 21.6499C22.2223 21.5574 22.171 21.47 22.1298 21.3499C21.9732 21.4088 21.8289 21.4884 21.6816 21.5673C21.4062 21.6964 21.118 21.7267 20.8173 21.7249C20.7833 21.7247 20.7492 21.7246 20.7141 21.7244C20.1625 21.7127 19.6521 21.4913 19.2498 21.1099C18.7521 20.5786 18.5634 19.9771 18.5857 19.2613C18.618 18.6985 18.9024 18.162 19.3098 17.7799C20.2167 17.0605 21.1735 17.0649 22.1598 17.6299Z" fill="white"/>
<path d="M21.5526 18.3426C21.8639 18.569 22.0851 18.8563 22.1527 19.2441C22.1992 19.6602 22.0927 20.0451 21.831 20.3744C21.5595 20.6685 21.2142 20.8062 20.8213 20.8232C20.4246 20.8164 20.1224 20.6575 19.8445 20.3861C19.7065 20.2407 19.6149 20.0997 19.5501 19.9101C19.5433 19.8911 19.5366 19.8721 19.5297 19.8525C19.4149 19.472 19.509 19.0881 19.6908 18.7466C19.8736 18.4371 20.1712 18.2627 20.5058 18.1516C20.8742 18.0857 21.2345 18.1443 21.5526 18.3426Z" fill="#0180C7"/>
<path d="M29.2701 17.72C29.742 18.1213 30.0065 18.6695 30.0726 19.2818C30.1113 19.8965 29.9155 20.5146 29.5138 20.9836C29.0956 21.4478 28.5462 21.7276 27.9197 21.7771C27.2582 21.7923 26.6688 21.5512 26.1801 21.11C25.8106 20.7359 25.5428 20.2006 25.5201 19.67C25.5182 19.6355 25.5163 19.6011 25.5144 19.5657C25.4907 18.9477 25.7169 18.3689 26.1201 17.9C26.4237 17.5751 26.812 17.3775 27.2301 17.24C27.2521 17.2326 27.274 17.2252 27.2966 17.2176C27.9755 17.0286 28.7396 17.2946 29.2701 17.72Z" fill="white"/>
<path d="M28.4954 18.3107C28.8254 18.5231 29.045 18.8112 29.1311 19.1976C29.1876 19.5702 29.1106 19.9469 28.9006 20.2638C28.6818 20.5497 28.4181 20.7209 28.0698 20.8101C27.9756 20.8224 27.8835 20.8245 27.7886 20.8232C27.7636 20.823 27.7387 20.8227 27.713 20.8224C27.3346 20.8118 27.0434 20.6564 26.7777 20.3872C26.5069 20.0642 26.4239 19.692 26.4498 19.2801C26.5112 18.9116 26.7001 18.5844 26.9993 18.3574C27.4895 18.0442 27.988 18.0296 28.4954 18.3107Z" fill="#0180C7"/>
<path d="M13.6999 15.9199C15.2245 15.9199 16.7491 15.9199 18.3199 15.9199C18.2909 16.3842 18.2634 16.6049 17.9899 16.9399C17.953 16.9872 17.9161 17.0346 17.8793 17.082C17.7448 17.2546 17.6073 17.4249 17.4687 17.5943C17.3342 17.7588 17.2033 17.9256 17.0749 18.0949C16.9309 18.2849 16.783 18.4711 16.6321 18.6555C16.4719 18.8515 16.3157 19.0504 16.1599 19.2499C15.9864 19.4723 15.8115 19.6933 15.6331 19.9118C15.4013 20.1958 15.1799 20.4866 14.9599 20.7799C16.0687 20.7799 17.1775 20.7799 18.3199 20.7799C18.3199 21.4502 18.3199 21.4502 18.1699 21.633C18.0633 21.7164 17.9701 21.7136 17.8394 21.7135C17.8017 21.7136 17.7639 21.7136 17.7251 21.7137C17.6832 21.7135 17.6413 21.7134 17.5994 21.7133C17.5553 21.7133 17.5113 21.7133 17.4672 21.7133C17.3475 21.7133 17.2279 21.7132 17.1082 21.713C16.9831 21.7128 16.8581 21.7128 16.7331 21.7127C16.4962 21.7126 16.2594 21.7124 16.0226 21.7121C15.753 21.7117 15.4834 21.7116 15.2138 21.7114C14.6592 21.7111 14.1045 21.7106 13.5499 21.7099C13.5492 21.6431 13.5487 21.5763 13.5483 21.5094C13.548 21.4722 13.5477 21.435 13.5474 21.3966C13.5555 21.0587 13.7325 20.8503 13.9399 20.5999C13.9716 20.561 14.0032 20.5221 14.0347 20.4831C14.1007 20.4016 14.1669 20.3203 14.2332 20.2391C14.3218 20.1304 14.4087 20.0204 14.4949 19.9099C14.6475 19.7146 14.8037 19.5222 14.9603 19.3301C15.0306 19.2437 15.1005 19.157 15.1699 19.0699C15.2555 18.9626 15.3419 18.8559 15.4287 18.7495C15.5827 18.5606 15.7351 18.3706 15.8851 18.1784C15.9887 18.046 16.0947 17.9156 16.2012 17.7855C16.435 17.4995 16.6583 17.2055 16.8799 16.9099C15.8305 16.9099 14.7811 16.9099 13.6999 16.9099C13.6999 16.5832 13.6999 16.2565 13.6999 15.9199Z" fill="white"/>
<path d="M23.8701 15.8601C24.1968 15.8601 24.5235 15.8601 24.8601 15.8601C24.8601 17.7906 24.8601 19.7211 24.8601 21.7101C24.1101 21.7101 24.1101 21.7101 23.9301 21.5901C23.8507 21.4864 23.8619 21.3681 23.8629 21.2427C23.8629 21.2197 23.8628 21.1967 23.8628 21.173C23.8627 21.0958 23.863 21.0187 23.8633 20.9415C23.8633 20.8862 23.8633 20.8309 23.8633 20.7756C23.8633 20.6255 23.8636 20.4753 23.864 20.3251C23.8644 20.1682 23.8645 20.0113 23.8645 19.8544C23.8647 19.5572 23.8652 19.26 23.8658 18.9629C23.8665 18.6246 23.8668 18.2863 23.8671 17.948C23.8677 17.252 23.8688 16.5561 23.8701 15.8601Z" fill="white"/>
</g>
<defs>
<clipPath id="clip0_488_36">
<rect width="40" height="40" fill="white"/>
</clipPath>
</defs>
</svg>
